<?xml version="1.0" encoding="UTF-8" standalone="no"?>
<!-- Created with Inkscape (http://www.inkscape.org/) -->

<svg
   xmlns:dc="http://purl.org/dc/elements/1.1/"
   xmlns:cc="http://creativecommons.org/ns#"
   xmlns:rdf="http://www.w3.org/1999/02/22-rdf-syntax-ns#"
   xmlns:svg="http://www.w3.org/2000/svg"
   xmlns="http://www.w3.org/2000/svg"
   xmlns:sodipodi="http://sodipodi.sourceforge.net/DTD/sodipodi-0.dtd"
   xmlns:inkscape="http://www.inkscape.org/namespaces/inkscape"
   width="48"
   height="48"
   id="svg2"
   version="1.1"
   inkscape:version="0.48.2 r9819"
   inkscape:export-filename="E:\Projetos\AndroidStudioProjects\SmartHouse\app\src\main\res\drawable-xxhdpi\ic_add.png"
   inkscape:export-xdpi="270"
   inkscape:export-ydpi="270"
   sodipodi:docname="Novo documento 1">
  <defs
     id="defs4" />
  <sodipodi:namedview
     id="base"
     pagecolor="#ffffff"
     bordercolor="#dddddd"
     borderopacity="1"
     inkscape:pageopacity="0.0"
     inkscape:pageshadow="2"
     inkscape:zoom="2.8"
     inkscape:cx="5.3428031"
     inkscape:cy="4.8778856"
     inkscape:document-units="px"
     inkscape:current-layer="layer1"
     showgrid="false"
     inkscape:showpageshadow="false"
     inkscape:window-width="1440"
     inkscape:window-height="848"
     inkscape:window-x="-8"
     inkscape:window-y="-8"
     inkscape:window-maximized="1" />
  <metadata
     id="metadata7">
    <rdf:RDF>
      <cc:Work
         rdf:about="">
        <dc:format>image/svg+xml</dc:format>
        <dc:type
           rdf:resource="http://purl.org/dc/dcmitype/StillImage" />
        <dc:title></dc:title>
      </cc:Work>
    </rdf:RDF>
  </metadata>
  <g
     inkscape:label="Camada 1"
     inkscape:groupmode="layer"
     id="layer1"
     transform="translate(0,-3109.0866)">
    <g
       id="g3818"
       transform="translate(0.32143154,-0.21420089)">
      <path
         transform="matrix(0.29473685,0,0,0.29473685,25.296987,3118.1008)"
         d="m -25.000001,51.57143 c 0,3.747647 -3.038068,6.785714 -6.785714,6.785714 -3.747647,0 -6.785714,-3.038067 -6.785714,-6.785714 0,-3.747646 3.038067,-6.785714 6.785714,-6.785714 3.747646,0 6.785714,3.038068 6.785714,6.785714 z"
         sodipodi:ry="6.7857141"
         sodipodi:rx="6.7857141"
         sodipodi:cy="51.57143"
         sodipodi:cx="-31.785715"
         id="path3766"
         style="color:#000000;fill:#333333;fill-opacity:0.98431373;fill-rule:nonzero;stroke:none;stroke-width:1.04100001;marker:none;visibility:visible;display:inline;overflow:visible;enable-background:accumulate"
         sodipodi:type="arc" />
      <path
         transform="matrix(0.29473685,0,0,0.29473685,33.04699,3118.1008)"
         d="m -25.000001,51.57143 c 0,3.747647 -3.038068,6.785714 -6.785714,6.785714 -3.747647,0 -6.785714,-3.038067 -6.785714,-6.785714 0,-3.747646 3.038067,-6.785714 6.785714,-6.785714 3.747646,0 6.785714,3.038068 6.785714,6.785714 z"
         sodipodi:ry="6.7857141"
         sodipodi:rx="6.7857141"
         sodipodi:cy="51.57143"
         sodipodi:cx="-31.785715"
         id="path3766-4"
         style="color:#000000;fill:#333333;fill-opacity:0.98431373;fill-rule:nonzero;stroke:none;stroke-width:1.04100001;marker:none;visibility:visible;display:inline;overflow:visible;enable-background:accumulate"
         sodipodi:type="arc" />
      <path
         transform="matrix(0.29473685,0,0,0.29473685,40.796993,3118.1008)"
         d="m -25.000001,51.57143 c 0,3.747647 -3.038068,6.785714 -6.785714,6.785714 -3.747647,0 -6.785714,-3.038067 -6.785714,-6.785714 0,-3.747646 3.038067,-6.785714 6.785714,-6.785714 3.747646,0 6.785714,3.038068 6.785714,6.785714 z"
         sodipodi:ry="6.7857141"
         sodipodi:rx="6.7857141"
         sodipodi:cy="51.57143"
         sodipodi:cx="-31.785715"
         id="path3766-0"
         style="color:#000000;fill:#333333;fill-opacity:0.98431373;fill-rule:nonzero;stroke:none;stroke-width:1.04100001;marker:none;visibility:visible;display:inline;overflow:visible;enable-background:accumulate"
         sodipodi:type="arc" />
    </g>
  </g>
</svg>
