<?xml version="1.0" encoding="UTF-8" standalone="no"?>
<!-- Created with Inkscape (http://www.inkscape.org/) -->

<svg
   xmlns:dc="http://purl.org/dc/elements/1.1/"
   xmlns:cc="http://creativecommons.org/ns#"
   xmlns:rdf="http://www.w3.org/1999/02/22-rdf-syntax-ns#"
   xmlns:svg="http://www.w3.org/2000/svg"
   xmlns="http://www.w3.org/2000/svg"
   xmlns:xlink="http://www.w3.org/1999/xlink"
   xmlns:sodipodi="http://sodipodi.sourceforge.net/DTD/sodipodi-0.dtd"
   xmlns:inkscape="http://www.inkscape.org/namespaces/inkscape"
   width="210mm"
   height="297mm"
   id="svg3069"
   version="1.1"
   inkscape:version="0.48.2 r9819"
   sodipodi:docname="Novo documento 3">
  <defs
     id="defs3071">
    <linearGradient
       inkscape:collect="always"
       xlink:href="#linearGradient3785"
       id="linearGradient3792"
       gradientUnits="userSpaceOnUse"
       x1="209.0802"
       y1="193.21153"
       x2="209.0802"
       y2="97.181458" />
    <linearGradient
       id="linearGradient3785">
      <stop
         style="stop-color:#038be7;stop-opacity:1;"
         offset="0"
         id="stop3787" />
      <stop
         style="stop-color:#58d3ee;stop-opacity:1;"
         offset="1"
         id="stop3789" />
    </linearGradient>
    <linearGradient
       inkscape:collect="always"
       xlink:href="#linearGradient3785"
       id="linearGradient3788"
       gradientUnits="userSpaceOnUse"
       x1="209.0802"
       y1="193.21153"
       x2="209.0802"
       y2="97.181458" />
    <linearGradient
       id="linearGradient3051">
      <stop
         style="stop-color:#038be7;stop-opacity:1;"
         offset="0"
         id="stop3053" />
      <stop
         style="stop-color:#58d3ee;stop-opacity:1;"
         offset="1"
         id="stop3055" />
    </linearGradient>
    <linearGradient
       inkscape:collect="always"
       xlink:href="#linearGradient3785"
       id="linearGradient3790"
       gradientUnits="userSpaceOnUse"
       x1="209.0802"
       y1="193.21153"
       x2="209.0802"
       y2="97.181458" />
    <linearGradient
       id="linearGradient3058">
      <stop
         style="stop-color:#038be7;stop-opacity:1;"
         offset="0"
         id="stop3060" />
      <stop
         style="stop-color:#58d3ee;stop-opacity:1;"
         offset="1"
         id="stop3062" />
    </linearGradient>
    <linearGradient
       y2="97.181458"
       x2="209.0802"
       y1="193.21153"
       x1="209.0802"
       gradientUnits="userSpaceOnUse"
       id="linearGradient3067"
       xlink:href="#linearGradient3785"
       inkscape:collect="always" />
  </defs>
  <sodipodi:namedview
     id="base"
     pagecolor="#ffffff"
     bordercolor="#666666"
     borderopacity="1.0"
     inkscape:pageopacity="0.0"
     inkscape:pageshadow="2"
     inkscape:zoom="0.49497475"
     inkscape:cx="321.08403"
     inkscape:cy="502.74288"
     inkscape:document-units="px"
     inkscape:current-layer="layer1"
     showgrid="false"
     inkscape:window-width="700"
     inkscape:window-height="425"
     inkscape:window-x="39"
     inkscape:window-y="326"
     inkscape:window-maximized="0" />
  <metadata
     id="metadata3074">
    <rdf:RDF>
      <cc:Work
         rdf:about="">
        <dc:format>image/svg+xml</dc:format>
        <dc:type
           rdf:resource="http://purl.org/dc/dcmitype/StillImage" />
        <dc:title></dc:title>
      </cc:Work>
    </rdf:RDF>
  </metadata>
  <g
     inkscape:label="Camada 1"
     inkscape:groupmode="layer"
     id="layer1">
    <g
       inkscape:export-ydpi="114.25405"
       inkscape:export-xdpi="114.25405"
       inkscape:export-filename="C:\Users\juliano.rocha\AndroidStudioProjects\SmartHouse2\app\src\main\res\mipmap-xxhdpi\ic_launcher.png"
       transform="translate(137.32143,390.71184)"
       style="fill:urlOn(#linearGradient3792);fill-opacity:1;stroke:#9b9b9b;stroke-width:0.2;stroke-linecap:round;stroke-linejoin:round;stroke-miterlimit:4;stroke-opacity:1;stroke-dasharray:none"
       id="g3795">
      <path
         style="fill:urlOn(#linearGradient3788);fill-opacity:1;stroke:#9b9b9b;stroke-width:0.2;stroke-linecap:round;stroke-linejoin:round;stroke-miterlimit:4;stroke-opacity:1;stroke-dasharray:none"
         d="m 209.56507,183.35272 c -10.84119,-3.81991 -11.58127,-17.18646 -1.91486,-22.36448 2.6466,-1.37548 7.14351,-1.3039 10.12696,0.1612 7.21545,3.54331 8.86884,13.35715 3.20464,19.02135 -2.85632,2.85633 -7.74098,4.21772 -11.41674,3.18193 z m -13.8402,-29.43001 c -2.46012,-2.53713 -2.77295,-3.02708 -2.77295,-4.34295 0,-1.31588 0.26591,-1.73234 2.35706,-3.69157 2.53026,-2.37064 6.97305,-4.89139 10.39501,-5.89791 8.08176,-2.37716 17.79848,-0.0432 23.9048,5.74197 2.38821,2.26262 2.58545,2.5731 2.58545,4.06999 0,1.49953 -0.20528,1.82057 -2.7497,4.30037 -1.72978,1.68584 -3.06841,2.67985 -3.60895,2.67985 -0.47259,0 -1.72166,-0.77538 -2.77572,-1.72307 -1.05406,-0.94769 -2.90725,-2.20498 -4.1182,-2.79398 -1.97192,-0.95914 -2.62564,-1.07199 -6.2631,-1.08121 -3.58039,-0.009 -4.31572,0.109 -6.20908,0.99704 -1.18124,0.55402 -3.05818,1.81595 -4.17098,2.80427 -1.15929,1.02962 -2.40277,1.79695 -2.91198,1.79695 -0.59691,0 -1.79918,-0.93896 -3.66166,-2.85975 z m -14.06039,-14.08899 c -3.79649,-3.7965 -3.91681,-4.55671 -1.18676,-7.49822 5.27847,-5.68731 14.52725,-10.65694 23.30452,-12.52216 4.02585,-0.85551 12.43224,-0.95834 16.63227,-0.20344 8.50986,1.52953 17.07356,5.83067 23.3052,11.7051 2.48289,2.34056 2.6102,2.54682 2.6102,4.22873 0,1.69019 -0.12608,1.8904 -2.85975,4.54109 -1.57287,1.52513 -3.14378,2.77295 -3.49093,2.77295 -0.34715,0 -1.75611,-1.04652 -3.13104,-2.32561 -7.36367,-6.8504 -15.91115,-10.00065 -25.91021,-9.54944 -8.81672,0.39786 -15.20221,3.06993 -22.54328,9.43348 -1.54915,1.34286 -3.01678,2.44157 -3.2614,2.44157 -0.24463,0 -1.80559,-1.36082 -3.46882,-3.02405 z m -14.05857,-14.03089 c -2.7307,-2.64781 -2.89017,-2.89608 -2.89017,-4.49947 0,-1.53954 0.18845,-1.87959 2.03068,-3.66423 11.17574,-10.82633 25.79279,-17.39004 41.15047,-18.478396 17.09862,-1.211735 33.64007,4.174846 46.97898,15.298316 4.43457,3.69803 5.76553,5.30898 5.76553,6.97839 0,1.20564 -0.36419,1.77214 -2.64131,4.1086 -1.91132,1.96114 -2.91478,2.71014 -3.63085,2.71014 -0.68831,0 -2.07558,-0.95847 -4.55707,-3.1485 -7.95128,-7.0174 -16.76861,-11.41667 -26.97248,-13.4575 -5.3401,-1.06805 -16.09271,-0.96713 -21.33201,0.20022 -10.84446,2.4162 -19.58317,7.01823 -27.31542,14.38502 -2.99373,2.85224 -3.21359,2.8378 -6.58635,-0.43259 z"
         id="path3007"
         inkscape:connector-curvature="0"
         sodipodi:nodetypes="ccsscsssssssssscssssssssssssssssssssssssssssss" />
      <path
         sodipodi:type="arc"
         style="fill:urlOn(#linearGradient3067);fill-opacity:1;stroke:#9b9b9b;stroke-width:0.21035074;stroke-linecap:round;stroke-linejoin:round;stroke-miterlimit:4;stroke-opacity:1;stroke-dasharray:none"
         id="path3793"
         sodipodi:cx="215.09935"
         sodipodi:cy="175.10783"
         sodipodi:rx="13.195118"
         sodipodi:ry="13.195118"
         d="m 228.29447,175.10783 c 0,7.28747 -5.90766,13.19512 -13.19512,13.19512 -7.28746,0 -13.19512,-5.90765 -13.19512,-13.19512 0,-7.28746 5.90766,-13.19511 13.19512,-13.19511 7.28746,0 13.19512,5.90765 13.19512,13.19511 z"
         transform="matrix(0.95079296,0,0,0.95079296,8.1636223,5.270401)" />
    </g>
    <rect
       style="fill:none;stroke:none"
       id="rect3114"
       width="113.43146"
       height="113.43146"
       x="293.28427"
       y="475.64645"
       inkscape:export-filename="C:\Users\juliano.rocha\AndroidStudioProjects\SmartHouse2\app\src\main\res\mipmap-xxhdpi\ic_launcher.png"
       inkscape:export-xdpi="114.25405"
       inkscape:export-ydpi="114.25405" />
  </g>
</svg>
